<svg xmlns="http://www.w3.org/2000/svg" width="24" height="24" viewBox="0 0 24 24"> <path fill="white" d="M19.1,3.4l2.6-2.3L21.4.7c-.7.7-1.7,1.7-2.9,2.7H13.4L12.1,6,10.9,3.4H5.5L2.6.7l-.3.4L5,3.5,2.2,6.3v3l1.5,1.4v5.6l4.1,4.1h8.3l4.3-4.1V10.9l1.4-1.6V6.2Zm-8.5.4L12.1,7l1.5-3.2h4.5l-6,5.4L6,3.8Zm5.2,2.7h1.8V9.1H15V7.2Zm-3.7,7.7-1.2-2.3,1.2-2,1.2,2Zm-2.9-7V9.1H6.6V6.5H8.4ZM5,17l-.9-.9v-5L5,12ZM3.7,10.1h0l-1.1-1V6.5L5.3,3.8h.1L7.9,6.1H6.2V9.5H9.6v-2l2.2,2-1.3,2.2H5.3Zm15.1,7-2.9,2.8h-8L5.4,17.4V12.2h5.1l1.6,2.9,1.5-2.9h5.2Zm1.1-.9-.6.6V12l.6-.7Zm1.5-7.1L19,11.7H13.6L12.4,9.5l2.2-2v2H18V6.1H16.2l2.5-2.3h.2l2.5,2.6Z"/><rect fill="white" x="5" y="22.8" width="5.7" height="0.44"/><rect  fill="white"13.5" y="22.8" width="5.7" height="0.44"/></svg>